<svg viewBox="0 0 170 170" fill="none" xmlns="http://www.w3.org/2000/svg">
    <circle fill="#0262CE" cx="85" cy="85" r="85"/>
    <path fill="#FCFDFE" d="M113.881172,43.019569 C90.264648,30.178478 64.684189,34.045605 48.058449,52.726799 C34.858883,67.558228 32.072502,91.197632 41.385361,109.340706 C50.738903,127.563042 70.842735,138.549789 90.950676,136.420853 C110.832100,134.315887 125.166649,124.462334 133.300430,106.012535 C134.083359,104.236649 134.581955,102.335403 135.393738,99.962784 C118.782120,99.962784 102.833885,99.962784 86.603561,99.962784 C86.603561,93.339470 86.603561,87.077477 86.603561,80.435883 C111.160164,80.435883 135.701385,80.435883 160.242233,80.435883 C163.302979,114.552216 140.748764,149.091629 103.432854,157.950897 C66.442032,166.733002 28.771688,145.612122 16.506569,109.184753 C4.347583,73.072617 22.413317,33.109261 57.723087,18.009363 C92.474304,3.148329 133.437683,17.290405 151.412231,50.778969 C144.918335,54.290916 138.415344,57.807789 132.816299,60.835804 C126.346870,54.716988 120.267281,48.966877 113.881172,43.019569z"/>
</svg>